<?xml version="1.0" standalone="no"?>
<!DOCTYPE svg PUBLIC "-//W3C//DTD SVG 20010904//EN"
 "http://www.w3.org/TR/2001/REC-SVG-20010904/DTD/svg10.dtd">
<svg version="1.0" xmlns="http://www.w3.org/2000/svg"
 width="256.000000pt" height="171.000000pt" viewBox="0 0 256.000000 171.000000"
 preserveAspectRatio="xMidYMid meet">

<g transform="translate(0.000000,171.000000) scale(0.100000,-0.100000)"
fill="#000000" stroke="none">
<path d="M1520 1360 c0 -20 5 -30 15 -30 17 0 18 4 9 38 -9 32 -24 27 -24 -8z"/>
<path d="M1067 1363 c-4 -3 -7 -19 -7 -35 0 -18 -5 -28 -15 -28 -12 0 -15 -17
-15 -94 0 -89 1 -95 25 -110 19 -12 30 -14 44 -7 13 8 21 7 27 -2 5 -6 7 -79
4 -162 -5 -136 -12 -159 -23 -70 -2 17 -5 -85 -6 -225 l-1 -256 38 -37 38 -37
116 0 115 0 37 33 36 33 0 246 c0 308 7 398 30 398 9 0 30 15 48 33 32 33 32
34 32 132 -1 63 -6 111 -15 130 -12 28 -13 21 -14 -86 l-1 -115 -36 -35 c-19
-18 -37 -33 -40 -31 -2 1 -11 2 -19 2 -13 0 -15 -23 -16 -142 0 -79 -4 -152
-9 -163 -6 -15 -9 -5 -9 35 -1 30 -4 112 -8 183 l-6 127 36 0 c59 0 86 61 51
115 -9 14 -12 25 -8 25 5 0 4 4 -1 8 -16 11 -47 63 -41 69 2 3 18 -4 35 -16
18 -13 32 -17 36 -11 8 14 -3 30 -21 30 -9 0 -14 11 -14 35 l0 35 -208 0
c-115 0 -212 -3 -215 -7z m365 -90 c2 -24 8 -37 16 -36 8 2 12 -12 12 -47 l0
-50 -50 0 -50 0 0 -172 c0 -95 -3 -183 -6 -195 -8 -29 -51 -37 -60 -11 -3 11
-12 17 -20 14 -8 -3 -14 1 -14 9 0 8 -5 15 -11 15 -5 0 -7 5 -3 12 5 7 2 9 -8
5 -24 -9 -38 35 -38 119 0 61 -4 79 -20 96 -11 12 -20 25 -20 29 0 4 9 5 20 2
18 -5 20 0 20 35 l0 41 -52 3 -53 3 -3 46 c-2 40 0 47 18 52 15 4 20 13 20 36
l0 31 149 0 150 0 3 -37z m-302 -541 c0 -15 -2 -15 -10 -2 -13 20 -13 33 0 25
6 -3 10 -14 10 -23z"/>
<path d="M1029 1063 c37 -46 61 -60 72 -41 11 17 2 28 -24 28 -11 0 -34 12
-51 28 -29 27 -29 27 3 -15z"/>
</g>
</svg>
